<?xml version="1.0" standalone="no"?>
<!DOCTYPE svg PUBLIC "-//W3C//DTD SVG 20010904//EN"
 "http://www.w3.org/TR/2001/REC-SVG-20010904/DTD/svg10.dtd">
<svg version="1.0" xmlns="http://www.w3.org/2000/svg"
 width="512.000000pt" height="512.000000pt" viewBox="0 0 512.000000 512.000000"
 preserveAspectRatio="xMidYMid meet">

<g transform="translate(0.000000,512.000000) scale(0.100000,-0.100000)"
fill="#000000" stroke="none">
<path d="M1310 5098 c-24 -13 -58 -40 -74 -61 l-31 -39 -3 -2104 c-2 -2074 -2
-2105 17 -2143 25 -48 71 -87 119 -101 20 -5 90 -10 154 -10 l117 0 3 -259 3
-259 31 -39 c16 -21 50 -48 74 -60 l44 -23 1418 0 c1258 0 1423 2 1456 15 47
20 79 50 103 97 18 36 19 93 19 2128 0 2055 0 2091 -20 2129 -24 48 -70 87
-118 101 -20 5 -90 10 -154 10 l-118 0 0 245 c0 222 -2 249 -19 283 -24 47
-56 77 -103 97 -33 13 -198 15 -1456 15 l-1418 0 -44 -22z m2885 -104 c47 -18
45 77 45 -2114 0 -2191 2 -2096 -45 -2114 -9 -3 -650 -6 -1425 -6 -1371 0
-1408 0 -1431 19 l-24 19 0 2082 0 2082 24 19 c23 19 60 19 1431 19 775 0
1416 -3 1425 -6z m410 -640 c47 -18 45 77 45 -2114 0 -2191 2 -2096 -45 -2114
-9 -3 -650 -6 -1425 -6 -1371 0 -1408 1 -1431 19 -24 19 -24 21 -27 260 l-3
241 1228 0 c814 0 1241 4 1265 10 48 14 94 53 118 101 20 37 20 71 20 1824 l0
1785 119 0 c66 0 127 -3 136 -6z"/>
<path d="M1822 4735 c-111 -31 -201 -108 -250 -213 -23 -49 -27 -70 -27 -152
0 -88 3 -101 33 -162 80 -164 259 -248 432 -204 243 63 356 324 237 549 -77
147 -265 227 -425 182z m209 -129 c47 -22 102 -78 126 -125 25 -51 25 -172 -1
-225 -47 -93 -131 -145 -237 -146 -148 0 -261 112 -261 260 0 102 53 189 145
235 45 23 62 26 122 23 40 -2 86 -12 106 -22z"/>
<path d="M1946 4441 l-71 -69 -28 24 c-15 13 -37 24 -48 24 -25 0 -59 -35 -59
-62 0 -30 100 -128 132 -128 18 0 52 28 127 104 87 89 102 108 96 128 -9 28
-32 48 -58 48 -11 0 -51 -31 -91 -69z"/>
<path d="M2482 4634 c-30 -20 -30 -68 0 -88 20 -14 108 -16 755 -16 720 0 733
0 753 20 11 11 20 29 20 40 0 11 -9 29 -20 40 -20 20 -33 20 -753 20 -647 0
-735 -2 -755 -16z"/>
<path d="M2482 4414 c-30 -20 -30 -68 0 -88 20 -14 108 -16 755 -16 720 0 733
0 753 20 11 11 20 29 20 40 0 11 -9 29 -20 40 -20 20 -33 20 -753 20 -647 0
-735 -2 -755 -16z"/>
<path d="M2482 4194 c-27 -19 -29 -64 -4 -87 17 -15 65 -17 480 -17 449 0 463
1 482 20 26 26 25 46 -5 75 l-24 25 -453 0 c-394 0 -456 -2 -476 -16z"/>
<path d="M1859 3749 c-103 -16 -203 -81 -257 -166 -124 -195 -51 -448 158
-547 59 -28 74 -31 160 -31 82 0 103 4 152 27 68 31 138 94 173 153 160 273
-74 615 -386 564z m176 -137 c146 -75 191 -265 92 -393 -18 -23 -56 -56 -86
-73 -46 -25 -65 -30 -120 -30 -77 1 -124 18 -179 68 -56 51 -83 114 -84 191
-1 121 71 217 192 256 41 14 142 3 185 -19z"/>
<path d="M1944 3449 l-73 -72 -31 27 c-38 31 -54 32 -80 6 -31 -31 -24 -57 31
-116 74 -78 89 -76 196 29 97 94 119 127 103 157 -11 20 -40 40 -60 40 -7 0
-45 -32 -86 -71z"/>
<path d="M2490 3647 c-31 -16 -39 -61 -14 -88 17 -18 41 -19 760 -19 l744 0
16 25 c21 32 12 68 -21 83 -39 18 -1450 17 -1485 -1z"/>
<path d="M2472 3418 c-17 -17 -15 -64 4 -82 14 -14 96 -16 758 -16 707 0 744
1 759 18 21 23 22 56 1 76 -14 14 -97 16 -763 16 -568 0 -750 -3 -759 -12z"/>
<path d="M2472 3198 c-17 -17 -15 -64 4 -82 14 -14 68 -16 487 -14 l471 3 15
26 c13 24 13 29 -2 53 l-17 26 -473 0 c-355 0 -476 -3 -485 -12z"/>
<path d="M1792 2741 c-330 -122 -333 -587 -5 -711 84 -32 216 -26 295 13 75
37 159 128 189 204 31 80 31 196 0 275 -31 80 -106 159 -189 200 -57 28 -79
33 -152 36 -64 2 -98 -2 -138 -17z m231 -115 c128 -53 192 -216 137 -344 -59
-136 -229 -199 -357 -133 -50 26 -108 87 -128 135 -24 56 -21 157 5 211 28 57
100 121 159 140 51 16 134 13 184 -9z"/>
<path d="M1950 2455 c-35 -36 -69 -65 -76 -65 -6 0 -19 9 -29 20 -38 42 -115
9 -101 -43 3 -13 30 -47 61 -76 44 -42 60 -51 78 -46 28 9 196 172 208 204 13
34 -12 71 -49 71 -21 0 -44 -16 -92 -65z"/>
<path d="M2478 2649 c-25 -14 -24 -75 1 -89 13 -7 268 -10 759 -10 703 0 740
1 755 18 22 24 21 55 -1 75 -17 16 -84 17 -758 17 -483 -1 -745 -4 -756 -11z"/>
<path d="M2478 2429 c-21 -12 -24 -69 -6 -87 9 -9 191 -12 758 -12 711 0 748
1 763 18 22 24 21 55 -1 75 -17 16 -84 17 -758 17 -483 -1 -745 -4 -756 -11z"/>
<path d="M2476 2204 c-19 -18 -21 -65 -4 -82 9 -9 130 -12 484 -12 l473 0 15
22 c21 30 20 44 -4 68 -19 19 -33 20 -484 20 -409 0 -466 -2 -480 -16z"/>
<path d="M1819 1757 c-104 -30 -199 -112 -247 -215 -23 -49 -27 -70 -27 -152
0 -82 4 -103 27 -153 33 -70 116 -155 182 -186 230 -107 487 25 536 276 24
119 -16 240 -110 334 -39 40 -73 62 -115 79 -72 27 -182 35 -246 17z m219
-133 c155 -77 190 -285 69 -413 -123 -129 -344 -97 -422 63 -48 98 -30 222 43
300 72 77 211 99 310 50z"/>
<path d="M1945 1460 l-69 -70 -26 25 c-14 14 -38 25 -51 25 -30 0 -59 -28 -59
-56 0 -25 109 -134 134 -134 21 0 213 183 222 212 9 29 -22 68 -54 68 -21 0
-44 -17 -97 -70z"/>
<path d="M2476 1651 c-25 -27 -17 -72 14 -88 35 -18 1446 -19 1485 -1 33 15
42 51 21 83 l-16 25 -744 0 c-719 0 -743 -1 -760 -19z"/>
<path d="M2477 1432 c-25 -27 -21 -69 7 -87 20 -14 110 -15 760 -13 717 3 738
4 752 22 19 27 18 52 -6 76 -20 20 -33 20 -758 20 -703 0 -740 -1 -755 -18z"/>
<path d="M2477 1212 c-24 -26 -21 -68 5 -86 20 -14 82 -16 476 -16 l453 0 24
25 c30 29 31 49 5 75 -19 19 -33 20 -483 20 -437 0 -465 -1 -480 -18z"/>
<path d="M627 4038 c-12 -13 -78 -157 -145 -320 l-122 -297 0 -1513 c0 -1442
1 -1515 19 -1553 23 -51 79 -101 128 -114 21 -6 95 -11 164 -11 119 0 130 2
180 28 39 20 62 41 84 77 l30 48 3 1513 2 1513 -126 308 c-70 169 -136 316
-146 326 -27 23 -44 22 -71 -5z m122 -396 c39 -95 71 -175 71 -177 0 -3 -72
-5 -159 -5 l-160 0 59 143 c98 238 101 244 110 227 4 -8 40 -93 79 -188z m101
-1587 l0 -1285 -190 0 -190 0 0 1285 0 1285 190 0 190 0 0 -1285z m0 -1526 c0
-120 0 -121 -29 -150 -29 -29 -29 -29 -156 -29 -69 0 -135 5 -146 10 -37 21
-49 63 -49 180 l0 110 190 0 190 0 0 -121z"/>
</g>
</svg>
