<?xml version="1.0" standalone="no"?>
<!DOCTYPE svg PUBLIC "-//W3C//DTD SVG 20010904//EN"
 "http://www.w3.org/TR/2001/REC-SVG-20010904/DTD/svg10.dtd">
<svg version="1.0" xmlns="http://www.w3.org/2000/svg"
 width="512.000000pt" height="512.000000pt" viewBox="0 0 512.000000 512.000000"
 preserveAspectRatio="xMidYMid meet">

<g transform="translate(0.000000,512.000000) scale(0.100000,-0.100000)"
fill="#000000" stroke="none">
<path d="M2545 5056 c-81 -37 -146 -125 -165 -224 -6 -33 1 -216 25 -613 30
-492 37 -574 55 -621 76 -205 317 -256 454 -97 71 84 73 94 107 677 33 573 33
652 2 723 -29 65 -89 128 -148 155 -43 21 -65 24 -165 24 -99 0 -122 -3 -165
-24z m286 -28 c78 -23 142 -98 169 -196 15 -57 -43 -1118 -66 -1199 -68 -242
-370 -242 -439 0 -14 51 -75 975 -75 1132 1 131 69 232 180 266 39 12 189 10
231 -3z"/>
<path d="M1265 4623 c-11 -3 -61 -24 -110 -47 -136 -64 -195 -147 -195 -276 0
-77 23 -132 189 -450 l159 -305 -82 -7 c-219 -19 -287 -30 -301 -52 -7 -12
-205 -461 -440 -999 l-428 -977 47 -219 46 -218 -75 -177 c-41 -97 -75 -179
-75 -182 0 -5 117 -182 129 -196 4 -4 59 3 123 17 199 42 349 58 553 58 105 0
233 -5 285 -12 416 -55 761 -208 1027 -455 l63 -58 92 38 c291 117 579 161
1011 151 416 -9 785 -69 1275 -209 32 -9 45 -9 50 -1 4 6 121 592 261 1302
l253 1291 -68 97 -69 97 -120 21 -119 20 -99 216 -99 217 -77 20 c-111 30
-175 41 -329 60 l-138 17 239 280 c131 154 250 303 264 330 21 39 27 68 31
135 3 78 1 90 -25 140 -32 62 -123 143 -211 186 -46 23 -61 26 -125 22 -83 -6
-156 -37 -210 -91 -58 -59 -648 -956 -667 -1015 -9 -29 -20 -56 -26 -61 -5 -4
-61 -26 -124 -47 -63 -21 -178 -70 -256 -110 l-141 -70 -48 38 c-171 137 -456
274 -682 327 -28 7 -53 18 -56 24 -139 372 -355 932 -369 960 -27 54 -94 119
-151 146 -47 23 -142 35 -182 24z m175 -68 c41 -21 96 -78 119 -124 11 -21
106 -265 212 -542 208 -548 215 -575 184 -669 -55 -167 -252 -198 -381 -61
-33 35 -315 562 -497 929 -65 131 -71 148 -71 206 0 83 25 147 74 189 39 33
172 93 220 99 35 5 104 -9 140 -27z m2863 -129 c77 -46 153 -113 173 -152 29
-59 26 -174 -6 -236 -21 -40 -590 -721 -720 -861 -128 -139 -325 -137 -398 4
-30 59 -32 158 -4 221 10 24 154 246 319 493 317 477 354 522 442 550 63 20
141 13 194 -19z m-2885 -1095 c95 -181 141 -238 225 -276 140 -66 303 1 352
144 17 50 20 149 6 199 l-10 33 32 -7 c76 -16 270 -90 371 -140 107 -53 239
-137 303 -192 l32 -27 -284 -1115 c-157 -613 -285 -1117 -285 -1119 0 -2 -55
50 -122 115 -396 385 -854 594 -1380 630 -86 6 -98 5 -104 -10 -4 -9 -4 -19
-1 -22 2 -3 60 -9 128 -15 517 -40 956 -247 1348 -636 74 -73 138 -133 142
-133 4 0 43 24 86 54 474 326 1131 415 1708 232 57 -18 108 -30 113 -27 6 3
95 418 200 921 160 773 187 917 176 930 -9 9 -17 11 -23 5 -5 -6 -91 -410
-191 -900 -101 -490 -186 -894 -190 -898 -4 -4 -54 6 -111 22 -217 62 -368 83
-594 83 -377 0 -726 -95 -1030 -279 -55 -34 -101 -60 -103 -58 -2 1 123 499
278 1106 201 791 285 1108 298 1117 55 43 444 212 488 212 1 0 6 -17 10 -37
17 -95 85 -175 171 -204 55 -18 159 -6 219 24 51 26 123 97 229 226 l60 72 70
-6 c176 -15 460 -67 480 -87 3 -2 57 -119 121 -259 l116 -254 -252 -1090
c-139 -599 -255 -1093 -259 -1097 -3 -4 -30 4 -60 17 -149 69 -390 133 -591
156 -137 15 -434 15 -580 0 -231 -25 -524 -89 -734 -160 l-88 -31 -92 69
c-304 229 -651 368 -1021 411 -245 27 -557 3 -778 -61 -38 -11 -71 -19 -73
-16 -5 5 -114 515 -116 542 -1 11 191 459 426 996 l427 976 117 12 c64 6 131
13 147 15 17 2 47 3 69 2 l39 -1 85 -164z m3528 -536 c23 -5 124 -150 124
-177 0 -9 -110 -577 -245 -1262 -135 -686 -245 -1251 -245 -1257 0 -7 -9 -9
-22 -5 -13 4 -108 29 -213 56 -816 210 -1572 209 -2082 -2 l-73 -30 -72 67
c-150 137 -394 275 -618 349 -364 121 -808 138 -1246 46 -54 -11 -101 -17
-104 -13 -18 22 -100 145 -100 151 0 4 26 67 57 142 57 133 57 134 66 100 5
-19 11 -41 13 -49 5 -16 24 -13 154 22 219 61 493 80 729 53 373 -44 706 -178
1006 -406 l102 -78 118 40 c508 169 1082 214 1517 118 117 -26 275 -79 375
-125 42 -19 80 -32 84 -28 4 5 124 514 268 1132 243 1053 259 1126 245 1152
-8 15 -14 30 -14 32 0 4 113 -14 176 -28z"/>
<path d="M4863 2318 c-6 -7 -99 -470 -208 -1028 -109 -558 -199 -1016 -200
-1017 0 -1 -54 14 -120 33 -780 228 -1520 240 -2052 33 l-102 -40 -68 54
c-377 303 -909 477 -1423 465 -114 -3 -135 -5 -138 -19 -2 -14 21 -17 190 -22
106 -4 238 -13 293 -21 400 -58 772 -213 1050 -437 87 -70 90 -71 120 -59 308
128 513 169 876 177 238 6 399 -4 624 -37 231 -34 404 -74 723 -167 29 -9 55
-14 57 -11 10 9 415 2090 409 2099 -7 13 -20 11 -31 -3z"/>
</g>
</svg>
