<?xml version="1.0" standalone="no"?>
<!DOCTYPE svg PUBLIC "-//W3C//DTD SVG 20010904//EN"
 "http://www.w3.org/TR/2001/REC-SVG-20010904/DTD/svg10.dtd">
<svg version="1.0" xmlns="http://www.w3.org/2000/svg"
 width="512.000000pt" height="512.000000pt" viewBox="0 0 512.000000 512.000000"
 preserveAspectRatio="xMidYMid meet">

<g transform="translate(0.000000,512.000000) scale(0.100000,-0.100000)"
fill="#000000" stroke="none">
<path d="M1447 4842 c-15 -16 -17 -49 -17 -259 l0 -240 -67 -17 c-225 -55
-382 -288 -345 -512 13 -77 57 -176 101 -226 17 -20 31 -38 31 -42 0 -3 -24
-6 -53 -6 -164 0 -346 -118 -431 -279 -65 -124 -66 -135 -66 -827 0 -607 0
-621 -20 -639 -31 -28 -66 -94 -85 -160 -37 -127 4 -284 100 -380 l41 -42 -50
-26 c-147 -77 -273 -239 -311 -398 -22 -95 -22 -491 1 -513 14 -14 235 -16
2284 -16 2049 0 2270 2 2284 16 14 13 16 48 16 229 0 118 -5 238 -11 267 -6
29 -29 91 -51 138 -33 69 -56 101 -122 165 -47 47 -105 93 -138 110 l-56 29
34 31 c48 43 99 134 114 205 38 179 -52 360 -218 442 -62 31 -73 33 -172 33
-99 0 -110 -2 -172 -33 -84 -41 -167 -128 -199 -209 -19 -46 -23 -78 -24 -153
0 -86 3 -101 32 -162 17 -37 51 -87 75 -111 l44 -44 -59 -32 c-74 -41 -183
-144 -222 -210 -16 -28 -32 -51 -35 -51 -3 0 -18 23 -35 51 -39 66 -148 169
-222 210 l-58 31 44 46 c24 24 57 75 75 111 28 60 31 75 31 161 -1 75 -5 107
-24 153 -32 81 -115 168 -199 209 -62 31 -73 33 -172 33 -99 0 -110 -2 -172
-33 -84 -41 -167 -128 -199 -209 -19 -46 -23 -78 -24 -153 0 -86 3 -101 32
-162 17 -37 51 -87 75 -111 l44 -44 -59 -32 c-74 -41 -183 -144 -222 -210 -16
-28 -32 -51 -35 -51 -3 0 -14 17 -25 37 -34 63 -148 176 -222 218 l-69 39 43
43 c183 189 128 509 -107 627 -38 19 -87 37 -110 41 l-40 7 2 176 3 177 1228
5 c1077 4 1229 7 1237 20 5 8 10 92 10 186 0 205 0 204 -103 204 l-67 0 0
1063 c0 1018 -1 1065 -18 1080 -17 16 -131 17 -1439 17 -1363 0 -1421 -1
-1436 -18z m2768 -1122 l0 -1015 -1087 -3 -1088 -2 0 160 0 160 214 0 c209 0
216 1 240 23 55 48 426 542 441 586 40 117 -8 247 -113 308 -41 25 -57 28
-132 28 -127 0 -145 -14 -326 -240 l-148 -185 -208 0 c-114 0 -208 3 -208 6 0
4 14 22 31 42 45 51 86 145 99 225 35 221 -108 442 -327 507 l-43 13 0 204 0
203 1328 -2 1327 -3 0 -1015z m-2603 463 c242 -108 265 -454 39 -590 -206
-124 -472 1 -506 238 -8 54 9 148 37 202 36 71 121 140 208 168 44 15 171 4
222 -18z m1138 -356 c37 -19 70 -74 70 -117 0 -45 -4 -50 -230 -344 l-165
-215 -231 -1 c-218 0 -233 -1 -258 -21 l-26 -20 0 -595 c0 -490 -2 -594 -13
-594 -36 0 -140 -65 -190 -120 -77 -83 -101 -147 -102 -270 0 -86 3 -101 32
-162 17 -37 51 -87 75 -111 l44 -44 -55 -29 c-70 -36 -187 -146 -226 -213 -16
-28 -32 -51 -35 -51 -3 0 -14 17 -25 37 -34 63 -148 176 -222 218 l-69 39 42
41 c22 23 56 73 75 111 32 64 34 75 34 164 -1 116 -25 185 -91 258 l-44 50 0
578 c0 523 -2 579 -17 596 -21 24 -68 23 -93 -2 -20 -20 -20 -33 -20 -559 l0
-539 -37 10 c-38 10 -179 6 -220 -7 l-23 -7 0 558 c0 620 3 653 62 752 41 67
100 121 176 158 l57 29 620 5 c386 3 626 9 636 15 10 6 74 82 144 170 147 185
182 224 210 235 30 13 87 11 115 -3z m1638 -1334 l-3 -78 -1172 -3 -1173 -2 0
80 0 80 1175 0 1176 0 -3 -77z m-3400 -709 c182 -75 223 -323 76 -453 -45 -39
-124 -71 -178 -71 -113 0 -230 87 -261 195 -64 219 153 416 363 329z m1120 -1
c46 -19 110 -80 134 -127 13 -24 23 -68 26 -109 4 -60 2 -73 -27 -131 -60
-123 -185 -179 -313 -142 -81 23 -130 64 -167 137 -57 114 -35 238 58 322 81
73 189 92 289 50z m1132 -8 c138 -70 188 -225 119 -364 -37 -73 -86 -114 -167
-137 -128 -37 -253 19 -313 142 -29 58 -31 71 -27 131 6 82 31 136 88 187 86
77 197 93 300 41z m1110 3 c95 -41 151 -123 158 -232 4 -66 1 -76 -29 -135
-74 -141 -232 -189 -371 -114 -87 47 -136 132 -137 238 -1 76 30 146 88 198
85 76 183 92 291 45z m-1099 -664 c88 -26 150 -63 215 -128 116 -116 144 -202
144 -438 l0 -168 -492 2 -493 3 1 170 c1 148 4 179 23 235 71 206 252 338 467
339 46 1 103 -6 135 -15z m1114 1 c85 -23 152 -62 220 -130 117 -116 145 -203
145 -442 l0 -163 -492 2 -493 3 1 170 c1 148 4 179 23 235 86 250 343 390 596
325z m-3370 -10 c92 -24 164 -64 232 -131 116 -114 157 -244 151 -479 l-3
-110 -495 0 -495 0 0 155 c1 130 4 166 23 225 48 157 155 270 307 323 100 35
188 41 280 17z m1170 -16 c129 -47 220 -130 280 -253 42 -86 57 -183 53 -341
l-3 -110 -495 0 -495 0 1 160 c1 182 12 235 70 331 43 72 84 115 149 158 48
32 141 70 195 80 55 10 187 -3 245 -25z"/>
</g>
</svg>
