<?xml version="1.0" standalone="no"?>
<!DOCTYPE svg PUBLIC "-//W3C//DTD SVG 20010904//EN"
 "http://www.w3.org/TR/2001/REC-SVG-20010904/DTD/svg10.dtd">
<svg version="1.0" xmlns="http://www.w3.org/2000/svg"
 width="512.000000pt" height="512.000000pt" viewBox="0 0 512.000000 512.000000"
 preserveAspectRatio="xMidYMid meet">

<g transform="translate(0.000000,512.000000) scale(0.100000,-0.100000)"
fill="#000000" stroke="none">
<path d="M2443 5105 c-170 -37 -309 -163 -362 -327 l-13 -38 -103 0 c-143 0
-219 -30 -266 -107 l-20 -32 -467 -3 c-466 -3 -467 -3 -527 -27 -82 -33 -173
-124 -206 -206 l-24 -60 -3 -1965 c-2 -1385 0 -1984 8 -2029 22 -125 94 -220
210 -275 l65 -31 1825 0 1825 0 65 31 c116 55 188 150 210 275 8 45 10 644 8
2029 l-3 1965 -24 60 c-33 82 -124 173 -206 206 -60 24 -61 24 -527 27 l-467
3 -20 32 c-47 77 -123 107 -266 107 l-103 0 -13 38 c-54 166 -192 290 -366
327 -83 18 -148 18 -230 0z m206 -199 c67 -18 125 -58 160 -110 40 -58 51 -99
51 -182 l0 -74 188 0 c133 0 192 -4 200 -12 8 -8 12 -60 12 -170 l0 -158 -700
0 -700 0 0 158 c0 110 4 162 12 170 8 8 67 12 200 12 l188 0 0 74 c0 83 11
124 51 182 68 101 205 145 338 110z m-991 -608 l3 -97 -369 -3 c-415 -3 -412
-3 -432 -77 -7 -27 -9 -600 -8 -1821 l3 -1782 33 -29 32 -29 1640 0 1640 0 32
29 33 29 3 1782 c1 1221 -1 1794 -8 1821 -20 74 -17 74 -432 77 l-369 3 3 97
3 97 419 3 c281 1 431 -1 459 -9 52 -14 102 -63 116 -114 8 -29 11 -603 11
-1983 0 -1726 -2 -1947 -15 -1979 -21 -50 -42 -72 -90 -94 -38 -18 -113 -19
-1805 -19 -1692 0 -1767 1 -1805 19 -48 22 -69 44 -90 94 -13 32 -15 253 -15
1979 0 1333 3 1955 11 1981 5 21 22 52 37 68 51 57 65 58 532 56 l425 -2 3
-97z m2410 -1970 l2 -1668 -1510 0 -1510 0 0 1663 c0 915 3 1667 7 1670 3 4
682 6 1507 5 l1501 -3 3 -1667z"/>
<path d="M2494 4761 c-61 -28 -89 -73 -89 -143 0 -42 5 -64 21 -85 73 -98 195
-98 268 0 31 42 29 130 -3 176 -26 36 -90 71 -131 71 -14 0 -43 -9 -66 -19z
m90 -114 c21 -16 18 -45 -6 -61 -38 -23 -78 35 -42 61 10 7 21 13 24 13 3 0
14 -6 24 -13z"/>
<path d="M2386 3654 c-305 -68 -551 -299 -638 -599 -20 -68 -23 -102 -23 -230
1 -128 4 -161 24 -225 89 -285 295 -492 582 -582 64 -20 95 -23 229 -23 134 0
165 3 229 23 287 90 493 297 582 582 20 64 23 97 24 225 0 128 -3 162 -23 230
-47 160 -144 309 -276 423 -68 58 -229 142 -321 167 -87 24 -301 29 -389 9z
m328 -204 c245 -62 431 -260 478 -508 13 -74 5 -233 -17 -297 -39 -116 -78
-179 -165 -265 -132 -132 -268 -190 -450 -190 -182 0 -318 58 -450 190 -87 86
-126 149 -165 265 -22 64 -30 223 -17 297 69 364 432 599 786 508z"/>
<path d="M2680 2925 c-118 -118 -220 -215 -224 -215 -5 0 -37 27 -72 60 -55
53 -67 60 -102 60 -70 0 -115 -70 -87 -135 7 -16 57 -73 111 -126 108 -105
141 -122 191 -95 15 8 142 129 281 268 251 253 252 254 252 297 0 56 -43 101
-98 101 -33 0 -51 -15 -252 -215z"/>
<path d="M1603 1623 c-12 -2 -33 -16 -47 -30 -38 -37 -36 -95 3 -134 l29 -29
150 0 c146 0 150 0 175 25 35 36 41 70 20 113 -13 26 -28 41 -53 49 -33 11
-228 15 -277 6z"/>
<path d="M2143 1623 c-12 -2 -34 -18 -48 -34 -35 -43 -34 -92 4 -130 l29 -29
702 0 702 0 29 29 c57 57 28 149 -52 165 -35 7 -1331 6 -1366 -1z"/>
<path d="M1559 1111 c-57 -57 -28 -149 52 -165 52 -10 232 -6 269 7 25 8 40
23 53 49 21 43 15 77 -20 113 -25 25 -29 25 -175 25 l-150 0 -29 -29z"/>
<path d="M2099 1111 c-40 -40 -40 -89 0 -133 l29 -33 664 -3 c365 -2 682 0
705 3 90 13 125 105 64 166 l-29 29 -702 0 -702 0 -29 -29z"/>
</g>
</svg>
